<?xml version="1.0" encoding="utf-8"?>
<!-- Generator: Adobe Illustrator 21.0.0, SVG Export Plug-In . SVG Version: 6.00 Build 0)  -->
<svg version="1.1" id="Capa_1" xmlns="http://www.w3.org/2000/svg" xmlns:xlink="http://www.w3.org/1999/xlink" x="0px" y="0px"
	 viewBox="0 0 1000 1000" style="enable-background:new 0 0 1000 1000;" xml:space="preserve">
<style type="text/css">
	.st0{fill:#F4AD7B;}
	.st1{fill:#FFFFFF;}
</style>
<g>
	<path class="st0" d="M394.2,882.7l-22.1-5.4c-66.9-16.4-79.8-101.9-67.5-154.5l0,0c4.3-18.5,14-35.1,27.9-47.9
		c9.3-8.7,20.4-15.9,31.1-23c19.6-12.9,38.1-25,43.4-43.3c6-20.1-5.5-43.3-34.9-70.6c-30.8-28.7-54.7-54-58.6-96
		c-5.9-63.5,26.9-128,83.6-164.2l26.2-16.8c-0.1-0.4-0.3-0.8-0.4-1.2c-21.5-62.1,15-136.4,85-172.8l34.8-18.1l-24.3,30.8
		c-36.7,46.6-42.4,82.5-19.6,123.8c7.9,14.4,18.7,27.2,30.1,40.7c6,7.1,12.2,14.5,17.9,22.1c45.1,59.7,61.8,136.6,45.9,210.9
		c-15,70-58.1,135.9-121.5,185.6c-6.4,5-13,9.9-19.4,14.6c-14.5,10.7-28.2,20.8-40.1,32.7c-34.8,35.1-56.1,98.8-30.9,134.2
		L394.2,882.7z M369.5,323.7c-28.2,32.6-43,74.9-39.2,116.7c3.3,36.1,24.2,58.1,53.3,85.2c34.6,32.2,47.5,60.9,39.6,87.8
		c-7.1,24.2-29.1,38.6-50.4,52.6c-10.1,6.7-20.6,13.6-29,21.3c-11.6,10.7-19.3,24-22.9,39.4l0,0c-9.4,40.2-3,102,35.9,126.2
		c-5.4-17.5-5.3-38.2,0.6-60.3c7.3-27.1,23.1-55,42.4-74.4c12.8-12.9,27.7-23.8,42.1-34.4c6.3-4.6,12.8-9.4,19-14.3
		c60.3-47.3,101.2-109.7,115.4-175.8c14.9-69.5-0.8-141.3-42.9-197.2c-5.5-7.2-11.5-14.4-17.4-21.4c-11.4-13.6-23.3-27.6-32-43.4
		c-22.8-41.3-17.3-76.6-2.8-105.8c-38.9,35.2-57.1,86.1-42.4,128.4c3.6,10.5,9,20.5,14.7,31c2.2,4.1,4.4,8.1,6.4,12.2
		c8.6,17,19.5,42.5,14,68c-5.1,23.9-28.2,47.7-57.8,46.4c-32.8-1.5-53.7-32.6-52.6-60.7C363.9,341.6,366.1,332.4,369.5,323.7z
		 M425.1,265.7l-16.5,23.9c-12.9,18.6-27.4,39.8-28.3,62.1c-0.7,19.6,14.1,42.2,36.5,43.2c20.4,0.9,37-16.4,40.5-33
		c3.4-15.7-0.5-33.2-12.5-56.8c-2-4-4.1-7.9-6.3-11.9C433.9,284.4,429,275.3,425.1,265.7z"/>
</g>
<path class="st1" d="M564,715.8c-7,13.4-13.4,27.4-14.3,42.2c-1,16,5.7,33.3,20.8,42c18.2,10.5,45,4.5,57.1-11.5
	c12.1-16,9.2-39.1-5.1-53.5c83.4,8.4,89.2,113.2,41,157.4c-28.9,26.5-72,38.2-113.4,36.5c-61.1-2.5-135.9-19.8-152.4-80.3
	c-11.4-41.9-7.3-62.4,23.4-95.8c50.4-55,161.9-124.5,173.4-200.4c20.5,21.8,13.7,53.2,7,81c-6.7,27.8-22,53.3-35.7,79
	C565.2,713.5,564.6,714.6,564,715.8z"/>
</svg>
